<svg width="60" height="60" viewBox="0 0 60 60" fill="none" xmlns="http://www.w3.org/2000/svg">
<path d="M20.625 0C20.625 15.834 12.068 30 0 30C12.068 30 20.625 44.167 20.625 60C20.625 44.167 29.182 30 41.25 30C29.182 30 20.625 15.834 20.625 0ZM45 30C45 37.918 40.723 45 34.687 45C40.723 45 45 52.084 45 60C45 52.084 49.277 45 55.313 45C49.277 45 45 37.918 45 30ZM49.688 0C49.688 7.917 45.411 15 39.375 15C45.41 15 49.688 22.084 49.688 30C49.688 22.084 53.965 15 60.001 15C53.965 15 49.688 7.917 49.688 0Z" fill="#232221"/>
</svg>
