<svg width="8" height="13" viewBox="0 0 8 13" fill="none" xmlns="http://www.w3.org/2000/svg">
<path d="M5.8578 0.96718L5.85757 0.967409L0.59218 6.21718C0.592177 6.21718 0.592174 6.21719 0.592171 6.21719C0.549421 6.25994 0.524692 6.30057 0.511195 6.33868L0.510819 6.33972C0.493749 6.38714 0.484375 6.44002 0.484375 6.5C0.484375 6.55998 0.493749 6.61286 0.510822 6.66028L0.511192 6.66132C0.524694 6.69943 0.549426 6.74007 0.59218 6.78282L5.8578 12.0484C5.95993 12.1506 6.08536 12.2031 6.25 12.2031C6.41008 12.2031 6.54213 12.1485 6.65782 12.0328C6.77581 11.9148 6.82812 11.7871 6.82812 11.6406C6.82812 11.4941 6.77581 11.3664 6.65782 11.2484L2.06407 6.65468L1.90939 6.5L2.06407 6.34532L6.65782 1.75157C6.76108 1.64831 6.8125 1.52505 6.8125 1.3675C6.8125 1.21392 6.75897 1.08395 6.6422 0.967179C6.52421 0.849192 6.39652 0.796875 6.25 0.796875C6.10348 0.796875 5.97579 0.849192 5.8578 0.96718Z" fill="#232221" stroke="white" stroke-width="0.4375"/>
</svg>
