<svg width="8" height="13" viewBox="0 0 8 13" fill="none" xmlns="http://www.w3.org/2000/svg">
<path d="M2.1422 12.0328L2.14243 12.0326L7.40782 6.78282C7.40782 6.78282 7.40783 6.78281 7.40783 6.78281C7.45058 6.74006 7.47531 6.69943 7.48881 6.66132L7.48918 6.66028C7.50625 6.61286 7.51562 6.55998 7.51562 6.5C7.51562 6.44002 7.50625 6.38714 7.48918 6.33972L7.48881 6.33868C7.47531 6.30057 7.45057 6.25993 7.40782 6.21718L2.1422 0.951555C2.04007 0.849427 1.91464 0.796875 1.75 0.796875C1.58992 0.796875 1.45787 0.851485 1.34218 0.96718C1.22419 1.08517 1.17188 1.21285 1.17188 1.35938C1.17188 1.5059 1.22419 1.63358 1.34218 1.75157L5.93593 6.34532L6.09061 6.5L5.93593 6.65468L1.34218 11.2484C1.23892 11.3517 1.1875 11.475 1.1875 11.6325C1.1875 11.7861 1.24103 11.916 1.3578 12.0328C1.47579 12.1508 1.60348 12.2031 1.75 12.2031C1.89652 12.2031 2.02421 12.1508 2.1422 12.0328Z" fill="#232221" stroke="white" stroke-width="0.4375"/>
</svg>
